<svg width="1280" height="356" viewBox="0 0 1280 356" fill="none" xmlns="http://www.w3.org/2000/svg">
<path d="M523.287 271.916H592.608V299.86H488.436V60.2305H589.926V88.1746H523.287V162.055H578.436V189.998H523.287V271.916ZM722.352 177.366L773.671 299.86H735.373L703.202 208.755L671.031 299.86H633.882L684.436 177.366L637.33 60.2305H675.627L703.202 146.36L731.16 60.2305H768.692L722.352 177.366ZM827.689 60.2305H906.201C929.945 60.2305 941.818 71.4592 941.818 93.9165V173.538C941.818 195.995 929.945 207.224 906.201 207.224H862.158V299.86H827.689V60.2305ZM907.349 168.179V99.2757C907.349 94.6821 906.584 91.7474 905.052 90.4713C903.52 88.9402 900.456 88.1746 895.861 88.1746H862.158V179.662H895.861C900.456 179.662 903.52 178.897 905.052 177.366C906.584 175.835 907.349 172.773 907.349 168.179ZM1039.45 271.916H1098.81V299.86H1004.98V60.2305H1039.45V271.916ZM1186.82 60.2305H1229.32C1253.08 60.2305 1264.94 71.4592 1264.94 93.9165V266.175C1264.94 288.632 1253.08 299.86 1229.32 299.86H1186.82C1162.82 299.86 1150.82 288.632 1150.82 266.175V93.9165C1150.82 71.4592 1162.82 60.2305 1186.82 60.2305ZM1230.47 260.816V99.2757C1230.47 94.6821 1229.71 91.7474 1228.18 90.4713C1226.64 88.9402 1223.58 88.1746 1218.98 88.1746H1196.78C1192.18 88.1746 1189.11 88.9402 1187.58 90.4713C1186.3 91.7474 1185.67 94.6821 1185.67 99.2757V260.816C1185.67 265.409 1186.3 268.471 1187.58 270.003C1189.11 271.279 1192.18 271.916 1196.78 271.916H1218.98C1223.58 271.916 1226.64 271.279 1228.18 270.003C1229.71 268.471 1230.47 265.409 1230.47 260.816Z" fill="#0A2979"/>
<path d="M523.287 271.916H592.608V299.86H488.436V60.2305H589.926V88.1746H523.287V162.055H578.436V189.998H523.287V271.916ZM722.352 177.366L773.671 299.86H735.373L703.202 208.755L671.031 299.86H633.882L684.436 177.366L637.33 60.2305H675.627L703.202 146.36L731.16 60.2305H768.692L722.352 177.366ZM827.689 60.2305H906.201C929.945 60.2305 941.818 71.4592 941.818 93.9165V173.538C941.818 195.995 929.945 207.224 906.201 207.224H862.158V299.86H827.689V60.2305ZM907.349 168.179V99.2757C907.349 94.6821 906.584 91.7474 905.052 90.4713C903.52 88.9402 900.456 88.1746 895.861 88.1746H862.158V179.662H895.861C900.456 179.662 903.52 178.897 905.052 177.366C906.584 175.835 907.349 172.773 907.349 168.179ZM1039.45 271.916H1098.81V299.86H1004.98V60.2305H1039.45V271.916ZM1186.82 60.2305H1229.32C1253.08 60.2305 1264.94 71.4592 1264.94 93.9165V266.175C1264.94 288.632 1253.08 299.86 1229.32 299.86H1186.82C1162.82 299.86 1150.82 288.632 1150.82 266.175V93.9165C1150.82 71.4592 1162.82 60.2305 1186.82 60.2305ZM1230.47 260.816V99.2757C1230.47 94.6821 1229.71 91.7474 1228.18 90.4713C1226.64 88.9402 1223.58 88.1746 1218.98 88.1746H1196.78C1192.18 88.1746 1189.11 88.9402 1187.58 90.4713C1186.3 91.7474 1185.67 94.6821 1185.67 99.2757V260.816C1185.67 265.409 1186.3 268.471 1187.58 270.003C1189.11 271.279 1192.18 271.916 1196.78 271.916H1218.98C1223.58 271.916 1226.64 271.279 1228.18 270.003C1229.71 268.471 1230.47 265.409 1230.47 260.816Z" fill="#E6E7EA"/>
<mask id="mask0_1442_173" style="mask-type:alpha" maskUnits="userSpaceOnUse" x="0" y="0" width="357" height="356">
<path d="M178.078 355.982C276.428 355.982 356.156 276.293 356.156 177.991C356.156 79.6893 276.428 0 178.078 0C79.7282 0 0 79.6893 0 177.991C0 276.293 79.7282 355.982 178.078 355.982Z" fill="#115BB8"/>
</mask>
<g mask="url(#mask0_1442_173)">
<path d="M174.178 360.487C274.673 360.487 356.14 279.06 356.14 178.614C356.14 78.1693 274.673 -3.25781 174.178 -3.25781C73.6838 -3.25781 -7.7832 78.1693 -7.7832 178.614C-7.7832 279.06 73.6838 360.487 174.178 360.487Z" fill="#0B3D91"/>
<path d="M278.903 310.133C400.231 310.133 498.587 211.824 498.587 90.5551C498.587 -30.7146 400.231 -129.023 278.903 -129.023C157.573 -129.023 59.2168 -30.7146 59.2168 90.5551C59.2168 211.824 157.573 310.133 278.903 310.133Z" fill="#0053BB"/>
<path d="M298.46 230.721C381.797 230.721 449.355 163.196 449.355 79.8996C449.355 -3.3968 381.797 -70.9219 298.46 -70.9219C215.123 -70.9219 147.564 -3.3968 147.564 79.8996C147.564 163.196 215.123 230.721 298.46 230.721Z" fill="#0069ED"/>
<path d="M296.352 41.0934C296.291 41.1468 296.234 41.2021 296.178 41.2589L102.66 238.441C101.3 239.827 101.193 242.01 102.411 243.522C103.629 245.035 105.786 245.395 107.43 244.364L335.891 101.036C340.45 98.9315 344.521 95.9052 347.843 92.1727C352.762 86.6459 356.043 79.5662 356.828 71.6489C358.804 51.697 344.214 33.925 324.246 31.9489C313.657 30.9011 303.676 34.5085 296.352 41.0934Z" fill="#FC3D21" stroke="#FC3D21" stroke-width="0.691849" stroke-linejoin="round"/>
<path d="M296.352 41.0895C296.291 41.1429 296.234 41.1982 296.178 41.255L102.66 238.437C101.3 239.823 101.193 242.006 102.411 243.518C103.629 245.031 105.786 245.392 107.43 244.36L335.891 101.032C340.45 98.9276 344.521 95.9012 347.843 92.1688C352.762 86.642 356.043 79.5623 356.828 71.645C358.804 51.6931 344.214 33.9211 324.246 31.945C313.657 30.8972 303.676 34.5046 296.352 41.0895Z" fill="#FC3D21" stroke="#FC3D21" stroke-width="0.691849" stroke-linejoin="round"/>
</g>
</svg>
