<svg width="1728" height="149" viewBox="0 0 1728 149" fill="none" xmlns="http://www.w3.org/2000/svg">
<g clip-path="url(#clip0_1473_94)">
<path d="M101.554 2.02344H89.8011C87.169 2.02344 84.9399 4.27323 84.9399 6.91163V104.241L25.7479 5.889C24.9266 4.47265 23.1055 2.02344 20.2694 2.02344H4.66036C2.02314 2.02344 -0.00195312 4.27323 -0.00195312 6.91163V139.608C-0.00195312 142.242 2.02314 144.282 4.66036 144.282H16.612C19.2594 144.282 21.2896 142.242 21.2896 139.608V36.5731L82.9199 138.795C86.1642 144.282 88.5769 144.282 90.403 144.282H101.554C104.186 144.282 106.43 142.242 106.43 139.608V6.91163C106.43 4.27323 104.186 2.02344 101.554 2.02344Z" fill="#DFE4E4"/>
<path d="M194.059 91.2408L216.151 27.638L238.045 91.2408H194.059ZM229.537 5.88658C228.925 4.05607 227.512 2.03125 224.88 2.03125H208.245C205.613 2.03125 203.996 4.05607 203.389 5.88658L156.348 137.157C155.736 138.584 155.129 140 155.129 141.033C155.129 143.063 156.761 144.28 158.592 144.28H172.773C174.191 144.28 176.027 143.876 176.619 141.447L187.367 110.952H244.738L255.486 141.636C255.899 143.063 257.098 144.28 259.536 144.28H274.533C276.364 144.28 277.992 143.063 277.992 141.033C277.992 140 276.976 137.781 276.777 136.968L229.537 5.88658Z" fill="#DFE4E4"/>
<path d="M448.577 2.02344H427.285C425.454 2.02344 424.24 3.45002 423.633 4.88682L390.272 79.8204L357.116 4.66184C356.514 3.45002 355.295 2.02344 353.051 2.02344H331.366C328.729 2.02344 326.709 4.27323 326.709 6.91163V139.608C326.709 142.242 328.729 144.282 331.366 144.282H342.726C345.363 144.282 347.587 142.242 347.587 139.608V34.7529L380.341 107.467C380.948 109.288 381.958 110.306 384.391 110.306H395.751C397.567 110.306 399.189 109.497 399.995 107.258L432.147 35.3664V139.608C432.147 142.242 434.381 144.282 437.019 144.282H448.577C451.21 144.282 453.234 142.242 453.234 139.608V6.91163C453.234 4.27323 451.21 2.02344 448.577 2.02344Z" fill="#DFE4E4"/>
<path d="M597.242 2.02734H518.183C515.55 2.02734 513.525 4.26692 513.525 6.91044V139.602C513.525 142.246 515.55 144.286 518.183 144.286H597.242C599.875 144.286 602.104 142.246 602.104 139.602V128.639C602.104 125.797 599.875 123.956 597.242 123.956H535.413V82.4985H584.266C586.903 82.4985 589.127 80.4737 589.127 77.8302V66.8522C589.127 64.2138 586.903 61.9641 584.266 61.9641H535.413V22.5567H597.242C599.875 22.5567 602.104 20.5268 602.104 17.8833V6.91044C602.104 4.26692 599.875 2.02734 597.242 2.02734Z" fill="#DFE4E4"/>
<path d="M672.706 38.5982C672.706 23.3609 683.454 19.3061 699.456 19.3061C718.33 19.3061 723.379 28.8576 724.813 38.3987C725.415 41.4615 726.838 42.8728 729.674 42.8728H741.835C744.472 42.8728 746.507 40.848 746.507 38.2044C746.507 20.7327 733.719 0.00390625 699.665 0.00390625C668.85 0.00390625 650.808 13.4107 650.808 38.5982C650.808 93.6673 727.649 72.3297 727.649 105.663C727.649 121.514 716.901 127.215 699.456 127.215C673.318 127.215 669.258 108.915 668.646 102.211C668.237 100.181 666.825 97.9361 664.192 97.9361H651.828C649.19 97.9361 647.166 100.181 647.166 102.825C647.166 120.711 661.755 146.292 699.257 146.292C724.2 146.292 749.553 135.743 749.553 105.663C749.553 51.0078 672.706 72.744 672.706 38.5982Z" fill="#DFE4E4"/>
<path d="M1130.91 2.02734H1051.83C1049.2 2.02734 1047.2 4.26692 1047.2 6.91044V139.602C1047.2 142.246 1049.2 144.286 1051.83 144.286H1064.22C1066.84 144.286 1069.08 142.246 1069.08 139.602V87.5912H1117.93C1120.56 87.5912 1122.78 85.5562 1122.78 82.9127V71.9347C1122.78 69.2963 1120.56 67.0517 1117.93 67.0517H1069.08V22.5567H1130.91C1133.54 22.5567 1135.75 20.5268 1135.75 17.8833V6.91044C1135.75 4.26692 1133.54 2.02734 1130.91 2.02734Z" fill="#DFE4E4"/>
<path d="M1204.76 91.2408L1226.85 27.638L1248.74 91.2408H1204.76ZM1240.24 5.88658C1239.63 4.05607 1238.21 2.03125 1235.58 2.03125H1218.95C1216.33 2.03125 1214.7 4.05607 1214.1 5.88658L1167.05 137.157C1166.44 138.584 1165.84 140 1165.84 141.033C1165.84 143.063 1167.47 144.28 1169.3 144.28H1183.48C1184.9 144.28 1186.71 143.876 1187.32 141.447L1198.09 110.952H1255.45L1266.2 141.636C1266.6 143.063 1267.82 144.28 1270.25 144.28H1285.23C1287.07 144.28 1288.71 143.063 1288.71 141.033C1288.71 140 1287.68 137.781 1287.48 136.968L1240.24 5.88658Z" fill="#DFE4E4"/>
<path d="M1432.31 95.0946H1416.89C1414.26 95.0946 1413.45 97.1247 1413.04 99.5739C1411.4 114.407 1400.87 125.989 1383.43 125.989C1365.61 125.989 1351.21 112.786 1351.21 89.0051V57.7175C1351.21 33.9413 1365.61 20.5294 1383.23 20.5294C1400.87 20.5294 1410.81 32.9187 1412.84 46.3254C1413.23 49.5825 1414.88 50.5949 1416.7 50.5949H1431.69C1434.13 50.5949 1435.55 49.1836 1435.32 46.535C1432.91 21.7412 1414.05 0 1383.23 0C1352.43 0 1329.32 22.7587 1329.32 57.513V89.0051C1329.32 123.555 1352.62 146.309 1383.43 146.309C1414.05 146.309 1433.91 123.345 1435.55 98.7665C1435.55 96.9198 1434.13 95.0946 1432.31 95.0946Z" fill="#DFE4E4"/>
<path d="M1574.04 2.02734H1494.98C1492.35 2.02734 1490.33 4.26692 1490.33 6.91044V139.602C1490.33 142.246 1492.35 144.286 1494.98 144.286H1574.04C1576.69 144.286 1578.91 142.246 1578.91 139.602V128.639C1578.91 125.797 1576.69 123.956 1574.04 123.956H1512.23V82.4985H1561.08C1563.71 82.4985 1565.93 80.4737 1565.93 77.8302V66.8522C1565.93 64.2138 1563.71 61.9641 1561.08 61.9641H1512.23V22.5567H1574.04C1576.69 22.5567 1578.91 20.5268 1578.91 17.8833V6.91044C1578.91 4.26692 1576.69 2.02734 1574.04 2.02734Z" fill="#DFE4E4"/>
<path d="M1647.38 38.5982C1647.38 23.3609 1658.12 19.3061 1674.13 19.3061C1692.98 19.3061 1698.06 28.8576 1699.47 38.3987C1700.07 41.4615 1701.5 42.8728 1704.35 42.8728H1716.52C1719.15 42.8728 1721.16 40.848 1721.16 38.2044C1721.16 20.7327 1708.39 0.00390625 1674.33 0.00390625C1643.52 0.00390625 1625.49 13.4107 1625.49 38.5982C1625.49 93.6673 1702.3 72.3297 1702.3 105.663C1702.3 121.514 1691.57 127.215 1674.13 127.215C1648 127.215 1643.92 108.915 1643.33 102.211C1642.92 100.181 1641.51 97.9361 1638.86 97.9361H1626.49C1623.86 97.9361 1621.82 100.181 1621.82 102.825C1621.82 120.711 1636.42 146.292 1673.93 146.292C1698.88 146.292 1724.22 135.743 1724.22 105.663C1724.22 51.0078 1647.38 72.744 1647.38 38.5982Z" fill="#DFE4E4"/>
<path d="M885.946 105.95C867.124 105.95 851.811 91.5256 851.811 73.788C851.811 64.119 856.371 55.0483 864.333 48.9022C859.141 43.0425 856.784 35.3062 857.672 27.3348C859.278 12.9412 871.832 2.08594 886.869 2.08594H898.26C901.019 2.08594 903.27 4.33062 903.27 7.09685V14.5723C903.27 17.3385 901.019 19.5883 898.26 19.5883H885.946C879.932 19.5883 875.219 24.4305 875.219 30.6123C875.219 36.7891 879.932 41.6313 885.946 41.6313C888.706 41.6313 890.945 43.8811 890.945 46.6421V54.1227C890.945 56.8838 888.706 59.1337 885.946 59.1337C877.01 59.1388 870.011 65.5762 870.011 73.788C870.011 81.9895 877.01 88.4066 885.946 88.4066C894.878 88.4066 901.882 81.9895 901.882 73.788V46.6473C901.882 43.8811 904.121 41.6313 906.885 41.6313H923.673C926.433 41.6313 928.668 43.8811 928.668 46.6473V54.1177C928.668 56.8838 926.433 59.1337 923.673 59.1337H918.919C918.919 77.9757 923.459 85.538 932.32 88.0333C934.513 88.6469 936.157 90.6052 936.157 93.0289V101.471C936.157 103.792 934.299 105.684 932.023 105.684C921.49 105.684 914.451 97.7838 911.915 94.394C905.621 101.742 896.077 105.95 885.946 105.95Z" fill="#DFE4E4"/>
<path d="M931.429 127.027H857.754C855.218 127.027 853.168 129.088 853.168 131.624V139.622C853.168 142.163 855.218 144.223 857.754 144.223H931.429C933.956 144.223 936.009 142.163 936.009 139.622V131.624C936.009 129.088 933.956 127.027 931.429 127.027Z" fill="#DFE4E4"/>
</g>
<defs>
<clipPath id="clip0_1473_94">
<rect width="1728" height="149" fill="white"/>
</clipPath>
</defs>
</svg>
