<svg width="1768" height="286" viewBox="0 0 1768 286" fill="none" xmlns="http://www.w3.org/2000/svg">
<g clip-path="url(#clip0_1473_109)">
<path d="M121.554 70.0234H109.801C107.169 70.0234 104.94 72.2732 104.94 74.9116V172.241L45.7479 73.889C44.9266 72.4727 43.1055 70.0234 40.2694 70.0234H24.6604C22.0231 70.0234 19.998 72.2732 19.998 74.9116V207.608C19.998 210.242 22.0231 212.282 24.6604 212.282H36.612C39.2594 212.282 41.2896 210.242 41.2896 207.608V104.573L102.92 206.795C106.164 212.282 108.577 212.282 110.403 212.282H121.554C124.186 212.282 126.43 210.242 126.43 207.608V74.9116C126.43 72.2732 124.186 70.0234 121.554 70.0234Z" fill="#DFE4E4"/>
<path d="M214.059 159.241L236.151 95.638L258.045 159.241H214.059ZM249.537 73.8866C248.925 72.0561 247.512 70.0312 244.88 70.0312H228.245C225.613 70.0312 223.996 72.0561 223.389 73.8866L176.348 205.157C175.736 206.584 175.129 208 175.129 209.033C175.129 211.063 176.761 212.28 178.592 212.28H192.773C194.191 212.28 196.027 211.876 196.619 209.447L207.367 178.952H264.738L275.486 209.636C275.899 211.063 277.098 212.28 279.536 212.28H294.533C296.364 212.28 297.992 211.063 297.992 209.033C297.992 208 296.976 205.781 296.777 204.968L249.537 73.8866Z" fill="#DFE4E4"/>
<path d="M468.577 70.0234H447.285C445.454 70.0234 444.24 71.45 443.633 72.8868L410.272 147.82L377.116 72.6618C376.514 71.45 375.295 70.0234 373.051 70.0234H351.366C348.729 70.0234 346.709 72.2732 346.709 74.9116V207.608C346.709 210.242 348.729 212.282 351.366 212.282H362.726C365.363 212.282 367.587 210.242 367.587 207.608V102.753L400.341 175.467C400.948 177.288 401.958 178.306 404.391 178.306H415.751C417.567 178.306 419.189 177.497 419.995 175.258L452.147 103.366V207.608C452.147 210.242 454.381 212.282 457.019 212.282H468.577C471.21 212.282 473.234 210.242 473.234 207.608V74.9116C473.234 72.2732 471.21 70.0234 468.577 70.0234Z" fill="#DFE4E4"/>
<path d="M617.242 70.0273H538.183C535.55 70.0273 533.525 72.2669 533.525 74.9104V207.602C533.525 210.246 535.55 212.286 538.183 212.286H617.242C619.875 212.286 622.104 210.246 622.104 207.602V196.639C622.104 193.797 619.875 191.956 617.242 191.956H555.413V150.498H604.266C606.903 150.498 609.127 148.474 609.127 145.83V134.852C609.127 132.214 606.903 129.964 604.266 129.964H555.413V90.5567H617.242C619.875 90.5567 622.104 88.5268 622.104 85.8833V74.9104C622.104 72.2669 619.875 70.0273 617.242 70.0273Z" fill="#DFE4E4"/>
<path d="M692.706 106.598C692.706 91.3609 703.454 87.3061 719.456 87.3061C738.33 87.3061 743.379 96.8576 744.813 106.399C745.415 109.461 746.838 110.873 749.674 110.873H761.835C764.472 110.873 766.507 108.848 766.507 106.204C766.507 88.7327 753.719 68.0039 719.665 68.0039C688.85 68.0039 670.808 81.4107 670.808 106.598C670.808 161.667 747.649 140.33 747.649 173.663C747.649 189.514 736.901 195.215 719.456 195.215C693.318 195.215 689.258 176.915 688.646 170.211C688.237 168.181 686.825 165.936 684.192 165.936H671.828C669.19 165.936 667.166 168.181 667.166 170.825C667.166 188.711 681.755 214.292 719.257 214.292C744.2 214.292 769.553 203.743 769.553 173.663C769.553 119.008 692.706 140.744 692.706 106.598Z" fill="#DFE4E4"/>
<path d="M1150.91 70.0273H1071.83C1069.2 70.0273 1067.2 72.2669 1067.2 74.9104V207.602C1067.2 210.246 1069.2 212.286 1071.83 212.286H1084.22C1086.84 212.286 1089.08 210.246 1089.08 207.602V155.591H1137.93C1140.56 155.591 1142.78 153.556 1142.78 150.913V139.935C1142.78 137.296 1140.56 135.052 1137.93 135.052H1089.08V90.5567H1150.91C1153.54 90.5567 1155.75 88.5268 1155.75 85.8833V74.9104C1155.75 72.2669 1153.54 70.0273 1150.91 70.0273Z" fill="#DFE4E4"/>
<path d="M1224.76 159.241L1246.85 95.638L1268.74 159.241H1224.76ZM1260.24 73.8866C1259.63 72.0561 1258.21 70.0312 1255.58 70.0312H1238.95C1236.33 70.0312 1234.7 72.0561 1234.1 73.8866L1187.05 205.157C1186.44 206.584 1185.84 208 1185.84 209.033C1185.84 211.063 1187.47 212.28 1189.3 212.28H1203.48C1204.9 212.28 1206.71 211.876 1207.32 209.447L1218.09 178.952H1275.45L1286.2 209.636C1286.6 211.063 1287.82 212.28 1290.25 212.28H1305.23C1307.07 212.28 1308.71 211.063 1308.71 209.033C1308.71 208 1307.68 205.781 1307.48 204.968L1260.24 73.8866Z" fill="#DFE4E4"/>
<path d="M1452.31 163.095H1436.89C1434.26 163.095 1433.45 165.125 1433.04 167.574C1431.4 182.407 1420.87 193.989 1403.43 193.989C1385.61 193.989 1371.21 180.786 1371.21 157.005V125.717C1371.21 101.941 1385.61 88.5294 1403.23 88.5294C1420.87 88.5294 1430.81 100.919 1432.84 114.325C1433.23 117.582 1434.88 118.595 1436.7 118.595H1451.69C1454.13 118.595 1455.55 117.184 1455.32 114.535C1452.91 89.7412 1434.05 68 1403.23 68C1372.43 68 1349.32 90.7587 1349.32 125.513V157.005C1349.32 191.555 1372.62 214.309 1403.43 214.309C1434.05 214.309 1453.91 191.345 1455.55 166.767C1455.55 164.92 1454.13 163.095 1452.31 163.095Z" fill="#DFE4E4"/>
<path d="M1594.04 70.0273H1514.98C1512.35 70.0273 1510.33 72.2669 1510.33 74.9104V207.602C1510.33 210.246 1512.35 212.286 1514.98 212.286H1594.04C1596.69 212.286 1598.91 210.246 1598.91 207.602V196.639C1598.91 193.797 1596.69 191.956 1594.04 191.956H1532.23V150.498H1581.08C1583.71 150.498 1585.93 148.474 1585.93 145.83V134.852C1585.93 132.214 1583.71 129.964 1581.08 129.964H1532.23V90.5567H1594.04C1596.69 90.5567 1598.91 88.5268 1598.91 85.8833V74.9104C1598.91 72.2669 1596.69 70.0273 1594.04 70.0273Z" fill="#DFE4E4"/>
<path d="M1667.38 106.598C1667.38 91.3609 1678.12 87.3061 1694.13 87.3061C1712.98 87.3061 1718.06 96.8576 1719.47 106.399C1720.07 109.461 1721.5 110.873 1724.35 110.873H1736.52C1739.15 110.873 1741.16 108.848 1741.16 106.204C1741.16 88.7327 1728.39 68.0039 1694.33 68.0039C1663.52 68.0039 1645.49 81.4107 1645.49 106.598C1645.49 161.667 1722.3 140.33 1722.3 173.663C1722.3 189.514 1711.57 195.215 1694.13 195.215C1668 195.215 1663.92 176.915 1663.33 170.211C1662.92 168.181 1661.51 165.936 1658.86 165.936H1646.49C1643.86 165.936 1641.82 168.181 1641.82 170.825C1641.82 188.711 1656.42 214.292 1693.93 214.292C1718.88 214.292 1744.22 203.743 1744.22 173.663C1744.22 119.008 1667.38 140.744 1667.38 106.598Z" fill="#DFE4E4"/>
<path d="M905.946 173.95C887.124 173.95 871.811 159.526 871.811 141.788C871.811 132.119 876.371 123.048 884.333 116.902C879.141 111.042 876.784 103.306 877.672 95.3348C879.278 80.9412 891.832 70.0859 906.869 70.0859H918.26C921.019 70.0859 923.27 72.3306 923.27 75.0969V82.5723C923.27 85.3385 921.019 87.5883 918.26 87.5883H905.946C899.932 87.5883 895.219 92.4305 895.219 98.6123C895.219 104.789 899.932 109.631 905.946 109.631C908.706 109.631 910.945 111.881 910.945 114.642V122.123C910.945 124.884 908.706 127.134 905.946 127.134C897.01 127.139 890.011 133.576 890.011 141.788C890.011 149.99 897.01 156.407 905.946 156.407C914.878 156.407 921.882 149.99 921.882 141.788V114.647C921.882 111.881 924.121 109.631 926.885 109.631H943.673C946.433 109.631 948.668 111.881 948.668 114.647V122.118C948.668 124.884 946.433 127.134 943.673 127.134H938.919C938.919 145.976 943.459 153.538 952.32 156.033C954.513 156.647 956.157 158.605 956.157 161.029V169.471C956.157 171.792 954.299 173.684 952.023 173.684C941.49 173.684 934.451 165.784 931.915 162.394C925.621 169.742 916.077 173.95 905.946 173.95Z" fill="#DFE4E4"/>
<path d="M951.429 195.027H877.754C875.218 195.027 873.168 197.088 873.168 199.624V207.622C873.168 210.163 875.218 212.223 877.754 212.223H951.429C953.956 212.223 956.009 210.163 956.009 207.622V199.624C956.009 197.088 953.956 195.027 951.429 195.027Z" fill="#DFE4E4"/>
</g>
<defs>
<clipPath id="clip0_1473_109">
<rect width="1728" height="149" fill="white" transform="translate(20 68)"/>
</clipPath>
</defs>
</svg>
