<svg width="1280" height="356" viewBox="0 0 1280 356" fill="none" xmlns="http://www.w3.org/2000/svg">
<path d="M523.286 271.916H592.607V299.86H488.435V60.2305H589.925V88.1746H523.286V162.055H578.435V189.998H523.286V271.916ZM722.351 177.366L773.67 299.86H735.372L703.201 208.755L671.03 299.86H633.881L684.435 177.366L637.329 60.2305H675.626L703.201 146.36L731.159 60.2305H768.691L722.351 177.366ZM827.688 60.2305H906.2C929.944 60.2305 941.817 71.4592 941.817 93.9165V173.538C941.817 195.995 929.944 207.224 906.2 207.224H862.157V299.86H827.688V60.2305ZM907.349 168.179V99.2757C907.349 94.6821 906.583 91.7474 905.051 90.4713C903.519 88.9402 900.455 88.1746 895.86 88.1746H862.157V179.662H895.86C900.455 179.662 903.519 178.897 905.051 177.366C906.583 175.835 907.349 172.773 907.349 168.179ZM1039.45 271.916H1098.81V299.86H1004.98V60.2305H1039.45V271.916ZM1186.82 60.2305H1229.32C1253.08 60.2305 1264.94 71.4592 1264.94 93.9165V266.175C1264.94 288.632 1253.08 299.86 1229.32 299.86H1186.82C1162.82 299.86 1150.82 288.632 1150.82 266.175V93.9165C1150.82 71.4592 1162.82 60.2305 1186.82 60.2305ZM1230.47 260.816V99.2757C1230.47 94.6821 1229.71 91.7474 1228.18 90.4713C1226.64 88.9402 1223.58 88.1746 1218.98 88.1746H1196.78C1192.18 88.1746 1189.11 88.9402 1187.58 90.4713C1186.3 91.7474 1185.67 94.6821 1185.67 99.2757V260.816C1185.67 265.409 1186.3 268.471 1187.58 270.003C1189.11 271.279 1192.18 271.916 1196.78 271.916H1218.98C1223.58 271.916 1226.64 271.279 1228.18 270.003C1229.71 268.471 1230.47 265.409 1230.47 260.816Z" fill="#0A2979"/>
<path d="M523.286 271.916H592.607V299.86H488.435V60.2305H589.925V88.1746H523.286V162.055H578.435V189.998H523.286V271.916ZM722.351 177.366L773.67 299.86H735.372L703.201 208.755L671.03 299.86H633.881L684.435 177.366L637.329 60.2305H675.626L703.201 146.36L731.159 60.2305H768.691L722.351 177.366ZM827.688 60.2305H906.2C929.944 60.2305 941.817 71.4592 941.817 93.9165V173.538C941.817 195.995 929.944 207.224 906.2 207.224H862.157V299.86H827.688V60.2305ZM907.349 168.179V99.2757C907.349 94.6821 906.583 91.7474 905.051 90.4713C903.519 88.9402 900.455 88.1746 895.86 88.1746H862.157V179.662H895.86C900.455 179.662 903.519 178.897 905.051 177.366C906.583 175.835 907.349 172.773 907.349 168.179ZM1039.45 271.916H1098.81V299.86H1004.98V60.2305H1039.45V271.916ZM1186.82 60.2305H1229.32C1253.08 60.2305 1264.94 71.4592 1264.94 93.9165V266.175C1264.94 288.632 1253.08 299.86 1229.32 299.86H1186.82C1162.82 299.86 1150.82 288.632 1150.82 266.175V93.9165C1150.82 71.4592 1162.82 60.2305 1186.82 60.2305ZM1230.47 260.816V99.2757C1230.47 94.6821 1229.71 91.7474 1228.18 90.4713C1226.64 88.9402 1223.58 88.1746 1218.98 88.1746H1196.78C1192.18 88.1746 1189.11 88.9402 1187.58 90.4713C1186.3 91.7474 1185.67 94.6821 1185.67 99.2757V260.816C1185.67 265.409 1186.3 268.471 1187.58 270.003C1189.11 271.279 1192.18 271.916 1196.78 271.916H1218.98C1223.58 271.916 1226.64 271.279 1228.18 270.003C1229.71 268.471 1230.47 265.409 1230.47 260.816Z" fill="black"/>
<mask id="mask0_1442_162" style="mask-type:alpha" maskUnits="userSpaceOnUse" x="0" y="0" width="357" height="356">
<path d="M178.078 355.982C276.428 355.982 356.156 276.293 356.156 177.991C356.156 79.6893 276.428 0 178.078 0C79.7282 0 0 79.6893 0 177.991C0 276.293 79.7282 355.982 178.078 355.982Z" fill="#115BB8"/>
</mask>
<g mask="url(#mask0_1442_162)">
<path d="M174.179 360.487C274.674 360.487 356.141 279.06 356.141 178.614C356.141 78.1693 274.674 -3.25781 174.179 -3.25781C73.6848 -3.25781 -7.78223 78.1693 -7.78223 178.614C-7.78223 279.06 73.6848 360.487 174.179 360.487Z" fill="#0B3D91"/>
<path d="M278.903 310.133C400.232 310.133 498.588 211.824 498.588 90.5551C498.588 -30.7146 400.232 -129.023 278.903 -129.023C157.574 -129.023 59.2178 -30.7146 59.2178 90.5551C59.2178 211.824 157.574 310.133 278.903 310.133Z" fill="#0053BB"/>
<path d="M298.461 230.721C381.798 230.721 449.356 163.196 449.356 79.8996C449.356 -3.3968 381.798 -70.9219 298.461 -70.9219C215.124 -70.9219 147.565 -3.3968 147.565 79.8996C147.565 163.196 215.124 230.721 298.461 230.721Z" fill="#0069ED"/>
<path d="M296.353 41.0934C296.292 41.1468 296.235 41.2021 296.179 41.2589L102.661 238.441C101.301 239.827 101.194 242.01 102.412 243.522C103.63 245.035 105.787 245.395 107.431 244.364L335.892 101.036C340.451 98.9315 344.522 95.9052 347.844 92.1727C352.763 86.6459 356.044 79.5662 356.829 71.6489C358.805 51.697 344.214 33.925 324.246 31.9489C313.658 30.9011 303.677 34.5085 296.353 41.0934Z" fill="#FC3D21" stroke="#FC3D21" stroke-width="0.691849" stroke-linejoin="round"/>
<path d="M296.353 41.0895C296.292 41.1429 296.235 41.1982 296.179 41.255L102.661 238.437C101.301 239.823 101.194 242.006 102.412 243.518C103.63 245.031 105.787 245.392 107.431 244.36L335.892 101.032C340.451 98.9276 344.522 95.9012 347.844 92.1688C352.763 86.642 356.044 79.5623 356.829 71.645C358.805 51.6931 344.214 33.9211 324.246 31.945C313.658 30.8972 303.677 34.5046 296.353 41.0895Z" fill="#FC3D21" stroke="#FC3D21" stroke-width="0.691849" stroke-linejoin="round"/>
</g>
</svg>
